<svg preserveAspectRatio="none" width="100%" height="100%" overflow="visible" style="display: block;" viewBox="0 0 24 24" fill="none" xmlns="http://www.w3.org/2000/svg">
<g id="smartphone 1">
<g id="Vector">
<path fill-rule="evenodd" clip-rule="evenodd" d="M4.5 3.06977C4.5 1.37439 5.86802 0 7.55556 0H16.4444C18.132 0 19.5 1.37439 19.5 3.06977V20.9302C19.5 22.6256 18.132 24 16.4444 24H7.55556C5.86802 24 4.5 22.6256 4.5 20.9302V3.06977ZM7.55556 1.67442C6.78849 1.67442 6.16667 2.29913 6.16667 3.06977V20.9302C6.16667 21.7009 6.78849 22.3256 7.55556 22.3256H16.4444C17.2116 22.3256 17.8333 21.7009 17.8333 20.9302V3.06977C17.8333 2.29913 17.2116 1.67442 16.4444 1.67442H7.55556Z" fill="var(--fill-0, #FF9500)"/>
<path fill-rule="evenodd" clip-rule="evenodd" d="M8.66667 0C8.20643 0 7.83333 0.374835 7.83333 0.837209V1.95349C7.83333 3.03237 8.70389 3.90698 9.77778 3.90698H14.2222C15.2961 3.90698 16.1667 3.03237 16.1667 1.95349V0.837209C16.1667 0.374835 15.7936 0 15.3333 0H8.66667Z" fill="var(--fill-0, #FF9500)"/>
</g>
</g>
</svg>
