<svg preserveAspectRatio="none" width="100%" height="100%" overflow="visible" style="display: block;" viewBox="0 0 24 24" fill="none" xmlns="http://www.w3.org/2000/svg">
<g id="computer (3) 1">
<path id="Vector" fill-rule="evenodd" clip-rule="evenodd" d="M0 4.62162C0 2.8976 1.37439 1.5 3.06977 1.5H20.9302C22.6256 1.5 24 2.8976 24 4.62162V15.973C24 17.697 22.6256 19.0946 20.9302 19.0946H14.4709L15.3081 20.7973H17.5814C18.0438 20.7973 18.4186 21.1785 18.4186 21.6486C18.4186 22.1188 18.0438 22.5 17.5814 22.5H6.4186C5.95623 22.5 5.5814 22.1188 5.5814 21.6486C5.5814 21.1785 5.95623 20.7973 6.4186 20.7973H8.69187L9.52908 19.0946H3.06977C1.37439 19.0946 0 17.697 0 15.973V4.62162ZM20.9302 17.3919H3.06977C2.29913 17.3919 1.67442 16.7567 1.67442 15.973V4.62162C1.67442 3.83797 2.29913 3.2027 3.06977 3.2027H20.9302C21.7009 3.2027 22.3256 3.83797 22.3256 4.62162V15.973C22.3256 16.7567 21.7009 17.3919 20.9302 17.3919Z" fill="var(--fill-0, #007AFF)"/>
</g>
</svg>
