<svg preserveAspectRatio="none" width="100%" height="100%" overflow="visible" style="display: block;" viewBox="0 0 18 18" fill="none" xmlns="http://www.w3.org/2000/svg">
<g id="warning 1" clip-path="url(#clip0_2031_5)">
<path id="Vector" d="M17.6402 13.115L11.334 2.19226C10.304 0.387854 7.69925 0.387854 6.67293 2.19226L0.363067 13.115C-0.666963 14.9194 0.615017 17.161 2.6936 17.161H15.2874C17.366 17.161 18.6702 14.8972 17.6402 13.115ZM8.99976 14.7379C8.4514 14.7379 7.99566 14.2821 7.99566 13.7338C7.99566 13.1854 8.4514 12.7297 8.99976 12.7297C9.54812 12.7297 10.0039 13.1854 9.98162 13.7597C10.0076 14.2821 9.52589 14.7379 8.99976 14.7379ZM9.91493 8.24647C9.87047 9.02455 9.8223 9.79892 9.77784 10.577C9.75561 10.829 9.75561 11.0587 9.75561 11.3069C9.73338 11.7182 9.41103 12.0368 8.99976 12.0368C8.58849 12.0368 8.26984 11.7404 8.24391 11.3291C8.17722 10.1176 8.10682 8.92821 8.04013 7.71663C8.01789 7.39799 7.99566 7.07564 7.96973 6.757C7.96973 6.23087 8.26614 5.79737 8.74781 5.66028C9.22948 5.54542 9.70744 5.77513 9.91493 6.23087C9.98533 6.39019 10.0076 6.54951 10.0076 6.73477C9.98533 7.24237 9.93716 7.74627 9.91493 8.24647Z" fill="var(--fill-0, #FF3B30)"/>
</g>
<defs>
<clipPath id="clip0_2031_5">
<rect width="18" height="18" fill="white"/>
</clipPath>
</defs>
</svg>
