<svg width="547" height="241" viewBox="0 0 547 241" fill="none" xmlns="http://www.w3.org/2000/svg">
    <defs>
        <linearGradient id="paint0_linear_2073_587" x1="13" y1="241" x2="79.2033" y2="156.049"
            gradientUnits="userSpaceOnUse">
            <stop stop-color="#ED73FF" stop-opacity="0.8" />
            <stop offset="1" stop-color="white" stop-opacity="0.08" />
        </linearGradient>
        <radialGradient id="blur_effect" cx="50%" cy="50%" r="70%">
            <stop offset="0%" stop-color="white" stop-opacity="0.04" />
            <stop offset="100%" stop-color="white" stop-opacity="0.01" />
        </radialGradient>
    </defs>
    <!-- Blur simulation layers -->
    <rect x="0" y="0" width="547" height="241" rx="16" fill="url(#blur_effect)" />
    <rect x="2" y="2" width="543" height="237" rx="14" fill="white" fill-opacity="0.02" />
    <rect x="4" y="4" width="539" height="233" rx="12" fill="white" fill-opacity="0.02" />
    <!-- Main background -->
    <path
        d="M16 1H531C539.284 1 546 7.71573 546 16V225C546 233.284 539.284 240 531 240H16C7.71573 240 1 233.284 1 225V16C1 7.71573 7.71573 1 16 1Z"
        fill="white" fill-opacity="0.12" />
    <path
        d="M16 1H531C539.284 1 546 7.71573 546 16V225C546 233.284 539.284 240 531 240H16C7.71573 240 1 233.284 1 225V16C1 7.71573 7.71573 1 16 1Z"
        stroke="url(#paint0_linear_2073_587)" stroke-width="2" />
</svg>